<?xml version="1.0" encoding="UTF-8" standalone="no"?>
<!-- Created with Inkscape (http://www.inkscape.org/) -->

<svg
   xmlns:dc="http://purl.org/dc/elements/1.1/"
   xmlns:cc="http://creativecommons.org/ns#"
   xmlns:rdf="http://www.w3.org/1999/02/22-rdf-syntax-ns#"
   xmlns:svg="http://www.w3.org/2000/svg"
   xmlns="http://www.w3.org/2000/svg"
   xmlns:sodipodi="http://sodipodi.sourceforge.net/DTD/sodipodi-0.dtd"
   xmlns:inkscape="http://www.inkscape.org/namespaces/inkscape"
   id="svg4136"
   version="1.1"
   inkscape:version="0.91 r13725"
   xml:space="preserve"
   width="77.952248"
   height="77.952248"
   viewBox="0 0 77.952248 77.952248"
   sodipodi:docname="brightness_contrast.svg"><metadata
     id="metadata4142"><rdf:RDF><cc:Work
         rdf:about=""><dc:format>image/svg+xml</dc:format><dc:type
           rdf:resource="http://purl.org/dc/dcmitype/StillImage" /><dc:title></dc:title></cc:Work></rdf:RDF></metadata><defs
     id="defs4140"><clipPath
       clipPathUnits="userSpaceOnUse"
       id="clipPath4152"><path
         d="m 0,62.362 62.362,0 L 62.362,0 0,0 0,62.362 Z"
         id="path4154"
         inkscape:connector-curvature="0" /></clipPath></defs><sodipodi:namedview
     pagecolor="#ffffff"
     bordercolor="#666666"
     borderopacity="1"
     objecttolerance="10"
     gridtolerance="10"
     guidetolerance="10"
     inkscape:pageopacity="0"
     inkscape:pageshadow="2"
     inkscape:window-width="1832"
     inkscape:window-height="1057"
     id="namedview4138"
     showgrid="false"
     inkscape:zoom="11.417246"
     inkscape:cx="38.976124"
     inkscape:cy="38.696793"
     inkscape:window-x="-8"
     inkscape:window-y="-8"
     inkscape:window-maximized="1"
     inkscape:current-layer="g4144" /><g
     id="g4144"
     inkscape:groupmode="layer"
     inkscape:label="brightness_contrast"
     transform="matrix(1.25,0,0,-1.25,0,77.95225)"><path
       d="m 0,0 62.362,0 0,62.362 L 0,62.362 0,0 Z"
       style="fill:#9e9e9e;fill-opacity:1;fill-rule:nonzero;stroke:none"
       id="path4146"
       inkscape:connector-curvature="0" /><g
       id="g4148"><g
         id="g4150"
         clip-path="url(#clipPath4152)"><g
           id="g4156"
           transform="translate(29.3062,55.8682)"><path
             d="M 0,0 C 0,0 -25,-1 -25,-25.185 -25,-48.875 0,-50 0,-50 L 0,0 Z"
             style="fill:#2b2b2a;fill-opacity:1;fill-rule:nonzero;stroke:none"
             id="path4158"
             inkscape:connector-curvature="0" /></g><g
           id="g4160"
           transform="translate(29.3062,55.8682)"><path
             d="M 0,0 C 0,0 -25,-1 -25,-25.185 -25,-48.875 0,-50 0,-50 L 0,0 Z"
             style="fill:none;stroke:#ffffff;stroke-width:2;stroke-linecap:butt;stroke-linejoin:miter;stroke-miterlimit:10;stroke-dasharray:none;stroke-opacity:1"
             id="path4162"
             inkscape:connector-curvature="0" /></g><g
           id="g4164"
           transform="translate(32.0562,51.1128)"><path
             d="M 0,0 C 0,0 19,-0.78 19,-19.634 19,-38.101 0,-38.979 0,-38.979 L 0,0 Z"
             style="fill:#ffffff;fill-opacity:1;fill-rule:nonzero;stroke:none"
             id="path4166"
             inkscape:connector-curvature="0" /></g><g
           id="g4168"
           transform="translate(32.0562,51.1128)"><path
             d="M 0,0 C 0,0 19,-0.78 19,-19.634 19,-38.101 0,-38.979 0,-38.979 L 0,0 Z"
             style="fill:none;stroke:#2b2b2a;stroke-width:2;stroke-linecap:butt;stroke-linejoin:miter;stroke-miterlimit:10;stroke-dasharray:none;stroke-opacity:1"
             id="path4170"
             inkscape:connector-curvature="0" /></g><path
           d="m 61.181,33.181 -7.562,0 0,-3 7.562,0 0,3 z"
           style="fill:#ffffff;fill-opacity:1;fill-rule:nonzero;stroke:#2b2b2a;stroke-width:0.5;stroke-linecap:butt;stroke-linejoin:miter;stroke-miterlimit:10;stroke-dasharray:none;stroke-opacity:1"
           id="path4172"
           inkscape:connector-curvature="0" /><g
           id="g4174"
           transform="translate(58.8501,17.9502)"><path
             d="M 0,0 -6.476,3.904 -8.025,1.336 -1.55,-2.569 0,0 Z"
             style="fill:#ffffff;fill-opacity:1;fill-rule:nonzero;stroke:none"
             id="path4176"
             inkscape:connector-curvature="0" /></g><g
           id="g4178"
           transform="translate(58.8501,17.9502)"><path
             d="M 0,0 -6.476,3.904 -8.025,1.336 -1.55,-2.569 0,0 Z"
             style="fill:none;stroke:#2b2b2a;stroke-width:0.5;stroke-linecap:butt;stroke-linejoin:miter;stroke-miterlimit:10;stroke-dasharray:none;stroke-opacity:1"
             id="path4180"
             inkscape:connector-curvature="0" /></g><g
           id="g4182"
           transform="translate(50.0024,7.2695)"><path
             d="M 0,0 -4.165,6.312 -6.67,4.66 -2.505,-1.653 0,0 Z"
             style="fill:#ffffff;fill-opacity:1;fill-rule:nonzero;stroke:none"
             id="path4184"
             inkscape:connector-curvature="0" /></g><g
           id="g4186"
           transform="translate(50.0024,7.2695)"><path
             d="M 0,0 -4.165,6.312 -6.67,4.66 -2.505,-1.653 0,0 Z"
             style="fill:none;stroke:#2b2b2a;stroke-width:0.5;stroke-linecap:butt;stroke-linejoin:miter;stroke-miterlimit:10;stroke-dasharray:none;stroke-opacity:1"
             id="path4188"
             inkscape:connector-curvature="0" /></g><g
           id="g4190"
           transform="translate(56.5151,48.0527)"><path
             d="m 0,0 -6.459,-3.933 1.56,-2.562 6.46,3.933 L 0,0 Z"
             style="fill:#ffffff;fill-opacity:1;fill-rule:nonzero;stroke:none"
             id="path4192"
             inkscape:connector-curvature="0" /></g><g
           id="g4194"
           transform="translate(56.5151,48.0527)"><path
             d="m 0,0 -6.459,-3.933 1.56,-2.562 6.46,3.933 L 0,0 Z"
             style="fill:none;stroke:#2b2b2a;stroke-width:0.5;stroke-linecap:butt;stroke-linejoin:miter;stroke-miterlimit:10;stroke-dasharray:none;stroke-opacity:1"
             id="path4196"
             inkscape:connector-curvature="0" /></g><g
           id="g4198"
           transform="translate(46.4155,57.5713)"><path
             d="M 0,0 -4.366,-6.174 -1.917,-7.906 2.45,-1.731 0,0 Z"
             style="fill:#ffffff;fill-opacity:1;fill-rule:nonzero;stroke:none"
             id="path4200"
             inkscape:connector-curvature="0" /></g><g
           id="g4202"
           transform="translate(46.4155,57.5713)"><path
             d="M 0,0 -4.366,-6.174 -1.917,-7.906 2.45,-1.731 0,0 Z"
             style="fill:none;stroke:#2b2b2a;stroke-width:0.5;stroke-linecap:butt;stroke-linejoin:miter;stroke-miterlimit:10;stroke-dasharray:none;stroke-opacity:1"
             id="path4204"
             inkscape:connector-curvature="0" /></g></g></g></g></svg>